PathFileType	4	(X/Y/Z)	s02c0301.trc
DataRate	CameraRate	NumFrames	NumMarkers	Units	OrigDataRate	OrigDataStartFrame	OrigNumFrames
200	200	6	51	mm	200	500	2000
Frame#	Time	racr			lacr			c7			jug			rlel			rdr			llel			ldr			s2			lic			ric			lasi			rasi			rpsi			lpsi			rgt			lgt			rth1			rth2			rth3			rth4			rlfc			rmfc			rsh1			rsh2			rsh3			rsh4			rlmal			rmmal			rcal			rtoe			rmt5			rmt1			lth1			lth2			lth4			lth3			llfc			lmfc			lsh1			lsh2			lsh3			lsh4			llmal			lmmal			lcal			ltoe			lmt5			SBIKE			LBIKE			RBIKE			
		X1	Y1	Z1	X2	Y2	Z2	X3	Y3	Z3	X4	Y4	Z4	X5	Y5	Z5	X6	Y6	Z6	X7	Y7	Z7	X8	Y8	Z8	X9	Y9	Z9	X10	Y10	Z10	X11	Y11	Z11	X12	Y12	Z12	X13	Y13	Z13	X14	Y14	Z14	X15	Y15	Z15	X16	Y16	Z16	X17	Y17	Z17	X18	Y18	Z18	X19	Y19	Z19	X20	Y20	Z20	X21	Y21	Z21	X22	Y22	Z22	X23	Y23	Z23	X24	Y24	Z24	X25	Y25	Z25	X26	Y26	Z26	X27	Y27	Z27	X28	Y28	Z28	X29	Y29	Z29	X30	Y30	Z30	X31	Y31	Z31	X32	Y32	Z32	X33	Y33	Z33	X34	Y34	Z34	X35	Y35	Z35	X36	Y36	Z36	X37	Y37	Z37	X38	Y38	Z38	X39	Y39	Z39	X40	Y40	Z40	X41	Y41	Z41	X42	Y42	Z42	X43	Y43	Z43	X44	Y44	Z44	X45	Y45	Z45	X46	Y46	Z46	X47	Y47	Z47	X48	Y48	Z48	X49	Y49	Z49	X50	Y50	Z50	X51	Y51	Z51	
500	2.5000	677.688119	1281.190546	-86.994565	738.767673	1261.252376	-423.639966	708.138527	1305.337299	-264.637850	630.001582	1184.793360	-259.253835	591.325218	1016.522527	-49.206413	726.504882	861.002613	-109.842565	623.737067	1034.499249	-572.987532	728.403135	848.830938	-515.814231	166.082405	1192.718740	-355.028992	329.294657	1148.721265	-467.385402	264.969991	1203.191509	-192.796354	355.462957	1107.299638	-430.342370	317.680608	1163.983124	-207.375473	192.335411	1245.728371	-315.678752	225.170748	1241.205905	-396.789146	229.538167	1132.954476	-150.047483	250.104170	1062.733235	-496.011624	309.092645	1083.081685	-132.908895	390.903154	1050.075738	-127.452188	444.321924	990.189043	-96.687281	411.175590	1070.940333	-151.742511	540.797186	872.193696	-119.060002	541.295980	860.131221	-233.133998	499.466937	765.055514	-113.210625	459.832557	690.402796	-142.944478	392.007547	637.494647	-144.078921	473.108684	688.543065	-180.083259	306.492526	558.749853	-156.616816	318.614153	578.021310	-236.957766	224.796266	524.001269	-202.018050	505.488342	476.206775	-189.467620	393.813305	474.583671	-132.901596	425.569642	485.705629	-240.203137	310.648638	938.027826	-506.168887	348.797931	859.762629	-499.672786	379.182950	866.884798	-480.083042	341.915944	771.292123	-502.265455	357.537856	674.400583	-477.734875	343.897913	643.474429	-378.514799	313.448901	582.165235	-505.812047	295.603100	498.907378	-493.346663	236.592783	430.210470	-501.286874	310.795856	492.465860	-455.704816	176.703535	337.162635	-492.778964	189.730209	329.250188	-414.520926	101.271779	336.606182	-453.096341	300.341522	129.094112	-438.730735	210.457007	181.763777	-506.630966	-128.681026	870.624295	-314.024701	32.904185	82.376630	-515.237967	33.035361	82.178395	-115.062165	
501	2.5050	675.967648	1280.131385	-85.765507	738.334306	1260.757112	-422.140549	707.061513	1304.908058	-263.404609	628.905858	1184.405784	-258.224850	588.591125	1015.335448	-50.681587	725.911444	861.900811	-110.780893	623.409061	1034.486014	-572.311792	728.163432	848.589657	-515.662336	165.370316	1192.868724	-355.353562	328.228848	1149.433430	-467.579318	264.168852	1203.030428	-192.776604	354.536358	1108.107761	-431.369632	316.847468	1163.699907	-207.432713	191.680871	1245.906106	-315.664692	224.357572	1241.856330	-396.952191	228.826399	1132.405203	-150.571073	249.831495	1063.483371	-496.802935	308.518764	1082.265627	-133.453407	390.152953	1048.896598	-128.099162	443.386299	988.794194	-97.356427	410.632175	1069.670045	-152.399122	538.983731	869.871702	-120.009721	539.698630	857.832082	-233.934497	498.724767	762.235649	-114.008223	460.429351	686.673110	-143.564629	393.443830	632.940733	-144.783686	473.114776	684.745716	-180.992808	309.369624	552.844875	-157.876761	321.735896	571.860016	-238.158524	228.439807	516.332390	-203.359788	510.062862	473.443022	-188.843918	397.839360	470.103067	-133.097890	430.330355	481.770055	-240.254995	312.210990	939.243220	-506.175708	351.484540	861.572159	-499.461842	381.950656	869.215017	-480.240939	345.912487	773.017577	-501.605826	362.142449	676.198325	-477.211887	348.781751	645.293059	-378.511747	316.863243	584.244506	-505.278127	296.466023	501.215835	-492.138165	236.693891	433.949950	-500.941591	311.797637	494.729019	-454.702549	174.341042	342.042050	-492.867079	187.111310	333.733958	-414.363779	98.769580	342.359710	-453.097714	294.759317	132.104747	-438.628164	205.195440	185.237765	-505.947148	-128.662143	870.617253	-314.020320	32.876608	82.286657	-515.275267	33.022002	82.183363	-115.069926	
502	2.5100	674.298188	1279.053717	-84.517189	737.841408	1260.356492	-420.761776	705.882898	1304.567129	-261.886889	627.795433	1183.988925	-257.236009	585.885526	1014.551762	-52.023402	725.454805	862.742997	-111.633827	622.997465	1034.517973	-571.646880	727.887494	848.335758	-515.473631	165.067466	1192.539326	-355.234273	327.313092	1150.378665	-468.144556	262.063232	1202.137907	-194.272381	353.587553	1108.843698	-431.984534	315.973882	1163.274449	-207.507071	190.951810	1245.994025	-315.661545	223.332405	1242.461324	-397.006326	228.095913	1131.760022	-151.034615	249.607775	1064.124225	-497.639255	308.127212	1081.421941	-134.002526	389.552650	1047.712118	-128.798331	442.637044	987.381346	-98.108262	410.036388	1068.307613	-153.289891	537.366375	867.603360	-121.133161	538.213137	855.400985	-234.867162	498.051875	759.542280	-114.920354	460.317816	682.534028	-145.162361	395.106434	628.245114	-145.562747	474.272759	681.122414	-181.279172	312.414624	546.835087	-158.929522	324.787563	565.522663	-239.230979	232.175393	508.739986	-204.506967	514.643866	470.051945	-188.126932	402.167981	465.365046	-133.221308	434.990569	477.521092	-240.411498	313.871902	940.492038	-506.046142	354.313600	863.458572	-499.128068	384.839254	871.606730	-480.339527	350.101496	774.890598	-500.996715	366.950683	677.995517	-476.723687	353.999910	647.075679	-378.898148	320.513318	586.339257	-504.663294	298.173983	503.880146	-491.511785	237.035092	437.931403	-500.478202	313.285443	497.099858	-453.983870	172.110723	347.019571	-492.917762	184.777958	338.326813	-414.197939	96.323642	348.262765	-452.995786	289.246085	135.238237	-438.460595	200.634491	189.785756	-506.051141	-128.604287	870.636340	-313.987519	32.879152	82.321495	-515.290611	33.024885	82.195023	-115.080103	
503	2.5150	672.521690	1277.777417	-83.341031	737.290516	1260.017196	-419.364014	704.719789	1304.142245	-260.644013	626.683859	1183.541928	-256.287225	583.477674	1013.854826	-53.488079	725.023033	863.493541	-112.489893	622.589093	1034.579215	-571.011186	727.579459	848.070942	-515.256345	164.341978	1192.460556	-355.432958	326.331332	1151.221583	-468.642756	261.227133	1201.552132	-194.309528	352.555607	1109.541054	-432.628057	315.143826	1162.678138	-207.423350	190.210263	1245.972240	-315.500971	222.359748	1243.019443	-396.963002	227.443091	1131.002714	-151.575229	249.359876	1064.643476	-498.603180	307.940068	1080.790477	-134.391324	389.044979	1046.416273	-129.571170	441.949758	985.714184	-99.024831	409.663631	1066.805182	-154.137259	535.901890	865.307599	-122.362397	536.704645	852.958745	-236.005459	497.335756	756.810058	-115.926916	461.830951	679.006674	-144.878415	396.830427	623.615752	-146.198970	475.521334	677.328358	-181.465694	315.668205	540.774169	-159.827312	327.975694	559.190874	-240.177009	235.972201	501.226820	-205.447344	519.170687	466.338590	-187.953784	406.457438	460.368651	-133.478154	439.518859	472.973904	-240.527103	315.678819	941.653095	-505.811406	357.245665	865.278891	-498.716891	387.805116	873.985788	-480.224805	354.587359	776.603663	-499.905757	372.025798	679.866886	-476.101039	358.698204	650.355102	-376.303443	324.336690	588.544568	-503.850814	300.163796	506.573771	-490.852020	237.598278	442.219736	-500.071018	314.932736	499.545735	-453.241441	170.117863	352.310081	-492.877980	182.736660	342.992327	-414.039502	94.094156	354.448530	-452.950108	283.938024	138.605399	-438.329609	196.270632	194.670018	-506.164225	-128.542210	870.669189	-313.909645	32.894146	82.340024	-515.291883	33.041136	82.186293	-115.089013	
504	2.5200	670.741058	1276.459751	-82.107462	736.777555	1259.665293	-417.956101	703.536758	1303.685842	-259.362182	625.584808	1183.064066	-255.378201	581.244394	1012.846901	-55.107529	724.679022	864.106637	-113.345643	622.181920	1034.673763	-570.419561	727.243588	847.796904	-515.018742	163.682362	1192.240366	-355.652715	324.685240	1152.298583	-468.214574	260.533133	1200.672102	-194.284554	351.839438	1110.121507	-433.558984	314.324658	1161.929648	-207.446080	189.084158	1245.885815	-315.264492	221.343144	1243.565545	-397.009370	227.010039	1129.940743	-152.140963	249.156449	1065.162852	-499.511038	307.847459	1079.835552	-134.888610	388.697216	1044.846250	-130.400624	441.254498	983.807015	-99.991947	409.377256	1065.252267	-155.006373	534.565477	862.870454	-123.622517	535.190354	850.501929	-237.309316	496.696829	753.920854	-117.003062	463.235695	675.422274	-144.730991	398.582204	618.831898	-146.753038	477.686637	674.235333	-180.736249	319.118011	534.667319	-160.687201	331.249539	552.730441	-240.919452	239.784044	493.807386	-206.181172	523.553634	462.321995	-187.820848	410.761970	455.201844	-133.523082	443.810541	468.260871	-240.355583	317.520219	942.852741	-505.428896	360.245080	867.097767	-498.192091	390.825879	876.267928	-480.088567	359.071604	778.493197	-499.230307	377.231204	681.814252	-475.512409	363.658337	652.011051	-375.795296	328.326195	590.971782	-503.054601	302.282254	509.453189	-490.206073	238.247890	446.474383	-499.485884	316.763986	502.218554	-452.549662	168.156211	357.767773	-492.830571	181.007013	347.699989	-413.905069	92.087984	360.687143	-452.818424	278.774942	142.288588	-438.060946	192.156206	199.648979	-506.028313	-128.452252	870.727129	-313.803306	32.899291	82.401960	-515.283072	32.534952	82.874596	-115.015740	
505	2.5250	668.793064	1275.152403	-80.977915	736.226325	1259.390160	-416.452263	702.269388	1303.275528	-258.072594	624.511408	1182.554730	-254.508529	579.031323	1011.737811	-56.966785	724.369125	864.658826	-114.297932	621.819082	1034.799826	-569.839348	726.884081	847.515404	-514.769022	162.998519	1191.882241	-355.732822	323.514376	1153.021222	-468.689443	259.926468	1199.597989	-194.244702	350.776715	1110.642339	-434.064597	313.631712	1160.829501	-207.465574	188.536997	1245.593507	-315.161404	220.381729	1244.134424	-397.047515	226.754110	1128.881676	-152.389678	248.910241	1065.568556	-500.519212	307.828520	1078.623696	-135.494020	388.405190	1043.005536	-131.209189	440.285497	981.595935	-100.807973	409.145855	1063.192076	-155.842176	533.281630	860.159488	-124.995906	534.288635	847.144878	-236.933224	496.364167	751.008262	-118.024824	464.427694	671.570033	-144.954408	400.483550	614.054302	-147.317228	478.900667	670.087607	-180.919484	322.394844	528.338169	-161.582980	334.434672	546.344547	-241.514017	243.598897	486.481517	-206.696165	527.633331	457.776241	-187.286206	414.834733	449.745247	-133.588365	447.945389	463.177350	-240.205443	319.438363	943.932091	-505.073691	363.344183	868.969267	-497.658961	393.857257	878.640077	-479.871023	363.667347	780.235538	-498.489452	382.532088	683.676870	-474.982906	368.760785	653.848267	-375.246143	332.363083	593.311959	-502.300283	304.334165	512.436848	-489.432115	239.012995	450.939126	-498.909659	318.582955	504.802924	-451.820649	166.390921	363.360697	-492.677833	179.535589	352.491336	-413.766422	90.075353	367.121144	-452.747636	273.817794	146.065438	-437.910323	188.260091	204.746330	-505.732640	-128.382874	870.765335	-313.664382	32.902938	82.472765	-515.254793	32.542864	82.878409	-114.998538	
